<svg width="15" height="15" viewBox="0 0 15 15" fill="none" xmlns="http://www.w3.org/2000/svg">
<path fill-rule="evenodd" clip-rule="evenodd" d="M3.35378 11.1471C3.44751 11.2408 3.50017 11.368 3.50017 11.5006C3.50017 11.6332 3.44751 11.7603 3.35378 11.8541L2.35378 12.8541C2.30765 12.9018 2.25248 12.9399 2.19148 12.9661C2.13048 12.9923 2.06487 13.0061 1.99848 13.0067C1.93209 13.0073 1.86625 12.9946 1.8048 12.9695C1.74335 12.9444 1.68753 12.9072 1.64058 12.8603C1.59363 12.8133 1.55651 12.7575 1.53137 12.6961C1.50623 12.6346 1.49358 12.5688 1.49415 12.5024C1.49473 12.436 1.50852 12.3704 1.53473 12.3094C1.56093 12.2484 1.59902 12.1932 1.64678 12.1471L2.64678 11.1471C2.74054 11.0534 2.8677 11.0007 3.00028 11.0007C3.13286 11.0007 3.26001 11.0534 3.35378 11.1471ZM4.85378 12.6471C4.94751 12.7408 5.00017 12.868 5.00017 13.0006C5.00017 13.1332 4.94751 13.2603 4.85378 13.3541L3.85378 14.3541C3.80765 14.4018 3.75248 14.4399 3.69148 14.4661C3.63048 14.4923 3.56487 14.5061 3.49848 14.5067C3.43209 14.5073 3.36625 14.4946 3.3048 14.4695C3.24335 14.4444 3.18753 14.4072 3.14058 14.3603C3.09363 14.3133 3.05651 14.2575 3.03137 14.1961C3.00623 14.1346 2.99358 14.0688 2.99415 14.0024C2.99473 13.936 3.00852 13.8704 3.03473 13.8094C3.06093 13.7484 3.09902 13.6932 3.14678 13.6471L4.14678 12.6471C4.24054 12.5534 4.3677 12.5007 4.50028 12.5007C4.63286 12.5007 4.76001 12.5534 4.85378 12.6471ZM1.85378 9.64709C1.94751 9.74085 2.00017 9.868 2.00017 10.0006C2.00017 10.1332 1.94751 10.2603 1.85378 10.3541L0.853778 11.3541C0.80729 11.4005 0.752114 11.4373 0.6914 11.4624C0.630685 11.4875 0.565622 11.5004 0.499924 11.5004C0.434227 11.5003 0.369182 11.4873 0.308503 11.4621C0.247825 11.437 0.1927 11.4001 0.146278 11.3536C0.0998557 11.3071 0.0630443 11.2519 0.0379459 11.1912C0.0128474 11.1305 -4.63058e-05 11.0654 1.24953e-07 10.9997C4.65557e-05 10.934 0.0130325 10.869 0.0382167 10.8083C0.0634009 10.7476 0.10029 10.6925 0.146778 10.6461L1.14678 9.64609C1.24054 9.55235 1.3677 9.49969 1.50028 9.49969C1.63286 9.49969 1.76001 9.55235 1.85378 9.64609M7.95578 1.16309C5.2494 2.48797 3.16877 4.81912 2.15878 7.65809L6.84278 12.3431C9.68187 11.3328 12.013 9.25178 13.3378 6.54509L7.95578 1.16309ZM9.00078 6.50009C9.00078 6.69707 8.96198 6.89212 8.8866 7.07411C8.81122 7.2561 8.70073 7.42146 8.56144 7.56075C8.42215 7.70003 8.25679 7.81052 8.0748 7.88591C7.89281 7.96129 7.69776 8.00009 7.50078 8.00009C7.3038 8.00009 7.10874 7.96129 6.92675 7.88591C6.74476 7.81052 6.57941 7.70003 6.44012 7.56075C6.30083 7.42146 6.19034 7.2561 6.11496 7.07411C6.03958 6.89212 6.00078 6.69707 6.00078 6.50009C6.00078 6.10226 6.15881 5.72073 6.44012 5.43943C6.72142 5.15812 7.10295 5.00009 7.50078 5.00009C7.8986 5.00009 8.28013 5.15812 8.56144 5.43943C8.84274 5.72073 9.00078 6.10226 9.00078 6.50009Z" fill="white"/>
<path d="M13.7639 5.557C14.2531 4.26041 14.5028 2.88579 14.5009 1.5C14.5009 1.021 14.4709 0.55 14.4149 0.0860004C13.9458 0.0285933 13.4736 -0.00012677 13.0009 4.20598e-07C11.5729 4.20598e-07 10.2059 0.26 8.94393 0.736L13.7639 5.557ZM7.61993 13.119L8.64693 14.146C8.7168 14.216 8.80587 14.2638 8.90289 14.2832C8.9999 14.3026 9.10049 14.2928 9.19193 14.255C9.28336 14.2172 9.36152 14.1531 9.41653 14.0709C9.47153 13.9886 9.50091 13.8919 9.50093 13.793V12.179C8.90156 12.5448 8.27231 12.8593 7.61993 13.119ZM1.38193 6.881C1.64293 6.225 1.95793 5.596 2.32193 5H0.707926C0.608905 4.99982 0.512062 5.02905 0.429672 5.08398C0.347283 5.13891 0.283059 5.21706 0.245142 5.30854C0.207224 5.40001 0.197321 5.50068 0.216688 5.59779C0.236055 5.6949 0.283819 5.78407 0.353926 5.854L1.38193 6.881Z" fill="white"/>
</svg>
